<svg xmlns="http://www.w3.org/2000/svg" width="358.2" height="269" viewBox="0 0 358.2 269">
  <g id="Grupo_39" data-name="Grupo 39" transform="translate(-1568.966 -907)">
    <path id="Subtração_1" data-name="Subtração 1" d="M-71.273-1572.491h-46.26l4.678-10.543,35.5-80,1.978-4.458H2.2a127.072,127.072,0,0,0-26.6,16.068A127.829,127.829,0,0,0-46.2-1629.538a127.044,127.044,0,0,0-15.975,26.659,126.243,126.243,0,0,0-9.094,30.387Zm296.939,0H179.273a126.24,126.24,0,0,0-9.094-30.387,127.041,127.041,0,0,0-15.975-26.659,127.829,127.829,0,0,0-21.809-21.886,127.084,127.084,0,0,0-26.6-16.068h76.526l2,4.387,36.5,80,4.842,10.612Z" transform="translate(1694 2593)" fill="none" stroke="#707070" stroke-linecap="round" stroke-linejoin="round" stroke-width="15"/>
    <path id="Interseção_2" data-name="Interseção 2" d="M54-1592.9c0-29.136,27.567-53.245,63.453-57.3C143-1631.728,159-1605.312,159-1575.982a82.025,82.025,0,0,1-9.78,38.618A93.693,93.693,0,0,1,128.175-1535C87.209-1535,54-1560.923,54-1592.9Z" transform="matrix(0.995, 0.105, -0.105, 0.995, 1572.611, 2631.698)" fill="#f8c2c2"/>
    <g id="Elipse_18" data-name="Elipse 18" transform="translate(1613.5 907)" fill="none" stroke="#707070" stroke-width="15">
      <circle cx="134.5" cy="134.5" r="134.5" stroke="none"/>
      <circle cx="134.5" cy="134.5" r="127" fill="none"/>
    </g>
    <g id="Interseção_1" data-name="Interseção 1" transform="translate(1719.5 2593)" fill="none">
      <path d="M54-1574a77.015,77.015,0,0,1,65.87-76.2A134.146,134.146,0,0,1,163-1551.5a134.077,134.077,0,0,1-10.153,51.357A77,77,0,0,1,131-1497,77,77,0,0,1,54-1574Z" stroke="none"/>
      <path d="M 115.0227203369141 -1633.921020507812 C 88.34538269042969 -1626.797973632812 68.99998474121094 -1602.191772460938 68.99998474121094 -1574.000122070312 C 68.99998474121094 -1539.81298828125 96.81324005126953 -1511.999755859375 131.0003814697266 -1511.999755859375 C 134.5845947265625 -1511.999755859375 138.1419982910156 -1512.303833007812 141.6372985839844 -1512.906860351562 C 145.8622283935547 -1525.279663085938 147.9999084472656 -1538.228881835938 147.9999084472656 -1551.500122070312 C 147.9999084472656 -1582.165893554688 136.0644226074219 -1611.797485351562 115.0227203369141 -1633.921020507812 M 119.8702774047852 -1650.201049804688 C 146.3942413330078 -1625.634033203125 162.9999237060547 -1590.504760742188 162.9999237060547 -1551.500122070312 C 162.9999237060547 -1533.310424804688 159.3909149169922 -1515.968505859375 152.8470153808594 -1500.14306640625 C 145.9206695556641 -1498.09716796875 138.58984375 -1496.999755859375 131.0003814697266 -1496.999755859375 C 88.4744873046875 -1496.999755859375 53.99998474121094 -1531.474243164062 53.99998474121094 -1574.000122070312 C 53.99998474121094 -1612.746826171875 82.61752319335938 -1644.808471679688 119.8702774047852 -1650.201049804688 Z" stroke="none" fill="#707070"/>
    </g>
    <circle id="Elipse_20" data-name="Elipse 20" cx="12.5" cy="12.5" r="12.5" transform="translate(1663.5 1029)" fill="#707070"/>
    <circle id="Elipse_21" data-name="Elipse 21" cx="12.5" cy="12.5" r="12.5" transform="translate(1807.5 1029)" fill="#707070"/>
    <path id="Caminho_493" data-name="Caminho 493" d="M1822,2860v73.109" transform="translate(-73.5 -1764)" fill="none" stroke="#707070" stroke-width="15"/>
    <path id="Caminho_494" data-name="Caminho 494" d="M1788.149,3017.035h50" transform="translate(-65.149 -1925)" fill="none" stroke="#707070" stroke-linecap="round" stroke-width="15"/>
  </g>
</svg>
